<?xml version="1.0" standalone="no"?><!DOCTYPE svg PUBLIC "-//W3C//DTD SVG 1.1//EN" "http://www.w3.org/Graphics/SVG/1.1/DTD/svg11.dtd"><svg t="1595594761077" class="icon" viewBox="0 0 1024 1024" version="1.1" xmlns="http://www.w3.org/2000/svg" p-id="6778" xmlns:xlink="http://www.w3.org/1999/xlink" width="200" height="200"><defs><style type="text/css"></style></defs><path d="M170.809806 973.592774A129.288258 129.288258 0 0 1 133.12 880.243613V368.805161c0-76.304516 37.722839-145.341935 101.970581-185.905548L460.733935 18.101677a86.016 86.016 0 0 1 102.796388 0l225.676387 164.830968c64.247742 40.563613 101.970581 109.568 101.97058 185.872516v511.438452c0 73.067355-58.599226 132.327226-130.081032 131.534452H263.168c-36.13729 0.792774-68.244645-13.807484-92.358194-38.185291z m244.967226-512.231226a133.219097 133.219097 0 0 0 96.355097 40.596646c75.47871 0 136.522323-61.704258 136.522323-138.008775 0-76.304516-61.043613-138.008774-136.522323-138.008774s-136.522323 61.671226-136.522323 138.008774c0.792774 38.152258 15.260903 72.241548 40.167226 97.412129z m127.669678-129.090064c8.026839 8.125935 13.675355 18.663226 13.675355 33.296516 0 25.963355-20.083613 46.245161-45.78271 46.245161a45.485419 45.485419 0 0 1-45.78271-46.245161c0-25.996387 20.083613-46.278194 45.78271-46.278194 12.849548 0 24.113548 4.855742 32.107355 12.981678z m146.993548 345.021935c24.87329 0.825806 45.749677-20.281806 44.923871-45.452387 0-25.996387-20.050581-46.278194-45.749677-46.278193H326.622968c-25.699097 0-45.78271 20.281806-45.78271 46.245161 0 25.996387 20.083613 46.311226 45.78271 46.311226l363.784258-0.825807z m-152.609032 163.972129c24.906323 0.825806 44.989935-19.489032 44.989935-45.452387 0-25.963355-20.083613-46.245161-45.782709-46.245161H333.031226c-25.699097 0-45.749677 20.281806-45.749678 46.245161 0 25.996387 20.050581 46.278194 45.749678 46.278194l204.8-0.825807z" p-id="6779"></path></svg>